# xmcd
#
# Track frame offsets: 
#        150
#        19537
#        36487
#        57487
#        75110
#        90840
#        106132
#        124537
#        142497
#        160532
#
# Disc length: 2379 seconds
#
# Revision: 1
# Processed by: cddbd v1.5.2PL0 Copyright (c) Steve Scherf et al.
# Submitted via: ExactAudioCopy v0.99pb5
#
DISCID=7009490a
DTITLE=George Benson - Irreplaceable
DYEAR=2004
DGENRE=Verve Music Group
TTITLE0=Irreplaceable
TTITLE1=Cell Phone
TTITLE2=Black Rose
TTITLE3=Take You Out
TTITLE4=Strings Of Love
TTITLE5=Missing You
TTITLE6=Six Play
TTITLE7=Softly, As In a Morning Sunrise
TTITLE8=Stairway To Love
TTITLE9=Arizona Sunrise
EXTD=YEAR: 2004
EXTT0=
EXTT1=
EXTT2=
EXTT3=
EXTT4=
EXTT5=
EXTT6=
EXTT7=
EXTT8=
EXTT9=
PLAYORDER=
